<svg width="65" height="65" fill="none" xmlns="http://www.w3.org/2000/svg"><circle cx="32.5" cy="32.5" r="32.5" fill="#DC7000" fill-opacity=".09"/><g clip-path="url(#a)" fill="#DC7000"><path d="m47.35 42.45-.66-2.47a.6.6 0 1 0-1.16.31l.29 1.08-4.23-2.4V28.93a.6.6 0 0 0-.3-.52l-8.74-5.03v-4.77l.78.78a.6.6 0 1 0 .85-.85l-1.8-1.81a.6.6 0 0 0-.86 0l-1.8 1.8a.6.6 0 0 0 .85.86l.78-.78v4.77l-8.68 5.03a.6.6 0 0 0-.3.52v9.92l-4.29 2.44.3-1.08a.6.6 0 1 0-1.17-.31l-.66 2.47a.6.6 0 0 0 .44.74l2.45.66a.6.6 0 0 0 .31-1.17l-1.04-.28 4.25-2.42 8.72 5.14a.6.6 0 0 0 .6 0l2.22-1.27a.6.6 0 1 0-.6-1.05l-1.91 1.1-7.82-4.6 7.74-4.4 7.89 4.5-1.2.7a.6.6 0 1 0 .6 1.04L41 40.02l4.18 2.38-1.04.29a.6.6 0 1 0 .3 1.16l2.42-.65a.6.6 0 0 0 .48-.75Zm-6.97-4.18-7.83-4.46v-9.03l7.83 4.5v9Zm-16.8-8.98 7.77-4.5v8.97l-7.78 4.42v-8.9Z"/><path d="M36.53 42.47a.6.6 0 1 0 0-1.2.6.6 0 0 0 0 1.2Z"/></g><defs><clipPath id="a"><path fill="#fff" transform="translate(16.53 15.42)" d="M0 0h30.85v30.85H0z"/></clipPath></defs></svg>