<svg width="55" height="16" fill="none" xmlns="http://www.w3.org/2000/svg"><path d="M3.66 12.36h4.48V15H.24V.96h3.42v11.4Zm12.75 2.78c-1.32 0-2.53-.3-3.64-.92A7 7 0 0 1 9.2 7.94a7 7 0 0 1 3.58-6.26 7.38 7.38 0 0 1 3.64-.92c1.32 0 2.53.3 3.62.92a6.67 6.67 0 0 1 2.6 2.56c.64 1.1.96 2.33.96 3.7a7.3 7.3 0 0 1-.96 3.72 6.85 6.85 0 0 1-2.6 2.56c-1.1.61-2.3.92-3.62.92Zm0-3.12c1.12 0 2.01-.37 2.68-1.12a4.23 4.23 0 0 0 1.02-2.96c0-1.24-.34-2.23-1.02-2.96a3.41 3.41 0 0 0-2.68-1.12c-1.13 0-2.04.37-2.72 1.1-.67.73-1 1.73-1 2.98a4.3 4.3 0 0 0 1 2.98c.68.73 1.59 1.1 2.72 1.1Zm18.4-6.62a2.49 2.49 0 0 0-1.1-1.06 3.43 3.43 0 0 0-1.66-.38c-1.1 0-1.99.37-2.66 1.1a4.1 4.1 0 0 0-1 2.9c0 1.3.35 2.3 1.04 3.04.71.72 1.68 1.08 2.9 1.08.84 0 1.55-.21 2.12-.64a3.6 3.6 0 0 0 1.28-1.84H31.4V7.08h7.44v3.18a6.63 6.63 0 0 1-1.3 2.38 6.7 6.7 0 0 1-2.3 1.78c-.93.45-1.98.68-3.16.68a7.6 7.6 0 0 1-3.72-.9 6.64 6.64 0 0 1-2.54-2.54 7.49 7.49 0 0 1-.9-3.7c0-1.39.3-2.62.9-3.7a6.46 6.46 0 0 1 2.54-2.54 7.36 7.36 0 0 1 3.7-.92c1.68 0 3.1.4 4.24 1.22a5.74 5.74 0 0 1 2.3 3.38h-3.78Zm12.56 9.74c-1.32 0-2.54-.3-3.64-.92a7 7 0 0 1-3.58-6.28 7 7 0 0 1 3.58-6.26 7.38 7.38 0 0 1 3.64-.92c1.32 0 2.52.3 3.62.92a6.67 6.67 0 0 1 2.6 2.56c.64 1.1.96 2.33.96 3.7a7.3 7.3 0 0 1-.96 3.72 6.85 6.85 0 0 1-2.6 2.56c-1.1.61-2.3.92-3.62.92Zm0-3.12c1.12 0 2.01-.37 2.68-1.12a4.23 4.23 0 0 0 1.02-2.96c0-1.24-.34-2.23-1.02-2.96a3.41 3.41 0 0 0-2.68-1.12c-1.14 0-2.04.37-2.72 1.1-.67.73-1 1.73-1 2.98a4.3 4.3 0 0 0 1 2.98c.68.73 1.58 1.1 2.72 1.1Z" fill="#fff"/></svg>