<svg width="65" height="65" fill="none" xmlns="http://www.w3.org/2000/svg"><circle cx="32.5" cy="32.5" r="32.5" fill="#DC7000" fill-opacity=".09"/><g clip-path="url(#a)" fill="#DC7000"><path d="M19.19 29.3c.14 0 .28-.05.38-.15l2.13-2.13a.53.53 0 0 0-.76-.76l-2.13 2.13a.53.53 0 0 0 .38.92ZM19.19 32.5c.14 0 .28-.05.38-.15l5.32-5.33a.53.53 0 0 0-.76-.76l-5.32 5.33a.53.53 0 0 0 .38.91Z"/><path d="M46.88 16.53H33.03c-.88 0-1.6.71-1.6 1.6v5.85H19.2a2.66 2.66 0 0 0-2.66 2.66V40.5c0 1.47 1.19 2.66 2.66 2.66h5.86v2.13h-1.6a1.6 1.6 0 0 0 0 3.2h23.43c.88 0 1.6-.72 1.6-1.6V18.12c0-.88-.72-1.6-1.6-1.6Zm-27.7 8.52h19.18c.88 0 1.6.71 1.6 1.6v12.77H17.58V26.64c0-.88.72-1.6 1.6-1.6ZM17.6 40.49h22.36c0 .88-.71 1.6-1.6 1.6H19.2a1.6 1.6 0 0 1-1.6-1.6Zm8.52 2.66h5.32v2.13h-5.32v-2.13Zm6.92 4.26h-9.58a.53.53 0 1 1 0-1.07H34.1a.53.53 0 1 1 0 1.07h-1.07Zm14.38-.53c0 .3-.24.53-.53.53H35.6a1.6 1.6 0 0 0-1.5-2.13h-1.6v-2.13h5.86c1.47 0 2.66-1.2 2.66-2.66V26.64c0-1.47-1.2-2.66-2.66-2.66H32.5v-5.86c0-.3.24-.53.53-.53h13.85c.3 0 .53.24.53.53v28.76Z"/><path d="M45.28 19.19H34.63c-.59 0-1.07.47-1.07 1.06v1.07c0 .59.48 1.06 1.07 1.06h10.65c.59 0 1.06-.47 1.06-1.06v-1.07c0-.59-.47-1.06-1.06-1.06Zm-10.65 2.13v-1.07h10.65v1.07H34.63ZM44.21 27.18a1.6 1.6 0 1 0 0-3.2 1.6 1.6 0 0 0 0 3.2Zm0-2.13a.53.53 0 1 1 0 1.06.53.53 0 0 1 0-1.06ZM45.81 29.84a1.6 1.6 0 1 0-3.2 0 1.6 1.6 0 0 0 3.2 0Zm-1.6.53a.53.53 0 1 1 0-1.06.53.53 0 0 1 0 1.06ZM37.3 44.21c-.3 0-.54.24-.54.54v1.06a.53.53 0 1 0 1.07 0v-1.06c0-.3-.24-.54-.54-.54ZM39.42 44.21c-.3 0-.53.24-.53.54v1.06a.53.53 0 1 0 1.06 0v-1.06c0-.3-.23-.54-.53-.54ZM41.55 44.21c-.3 0-.53.24-.53.54v1.06a.53.53 0 1 0 1.06 0v-1.06c0-.3-.23-.54-.53-.54ZM43.68 44.21c-.3 0-.53.24-.53.54v1.06a.53.53 0 1 0 1.06 0v-1.06c0-.3-.23-.54-.53-.54ZM45.81 44.21c-.3 0-.53.24-.53.54v1.06a.53.53 0 1 0 1.06 0v-1.06c0-.3-.23-.54-.53-.54Z"/></g><defs><clipPath id="a"><path fill="#fff" transform="translate(16.53 16.53)" d="M0 0h31.95v31.95H0z"/></clipPath></defs></svg>