<svg width="65" height="65" fill="none" xmlns="http://www.w3.org/2000/svg"><circle cx="32.5" cy="32.5" r="32.5" fill="#DC7000" fill-opacity=".09"/><g clip-path="url(#a)" fill="#DC7000"><path d="M21.4 27.24h-8.18v2.33h8.19a1.16 1.16 0 0 1 0 2.32h-4.7a3.49 3.49 0 0 0-3.49 3.48v3.5h2.32v-3.5c0-.64.53-1.16 1.17-1.16h4.7a3.49 3.49 0 0 0 0-6.97ZM33.63 27.24a3.49 3.49 0 0 0-3.48 3.49v4.64c0 .65-.53 1.17-1.17 1.17h-5.25v2.32h5.25a3.49 3.49 0 0 0 3.49-3.49v-4.64c0-.64.52-1.16 1.16-1.16h5.26v-2.33h-5.26ZM50.56 34.21v-4.64a2.33 2.33 0 0 0-3.57-1.97l-7.36 4.65a2.33 2.33 0 0 0 1.24 4.29h7.36v2.32h2.33v-2.32h2.32V34.2h-2.32Zm-2.33 0h-7.35l7.35-4.64v4.64Z"/></g><defs><clipPath id="a"><path fill="#fff" transform="translate(13.22 13.22)" d="M0 0h39.66v39.66H0z"/></clipPath></defs></svg>