<svg width="21" height="21" fill="none" xmlns="http://www.w3.org/2000/svg"><g clip-path="url(#a)"><path d="M1.26 11.97c.09.02.18.02.26.02h14.82l-.33.15a3 3 0 0 0-.84.6L11 16.9a1.56 1.56 0 0 0-.22 1.99 1.5 1.5 0 0 0 2.26.2l7.5-7.52a1.5 1.5 0 0 0 .01-2.12l-7.51-7.52a1.5 1.5 0 0 0-2.26.15c-.42.63-.33 1.47.22 2l4.15 4.16a3 3 0 0 0 .75.55l.45.2H1.6c-.76-.03-1.44.5-1.58 1.26a1.5 1.5 0 0 0 1.24 1.72Z" fill="#DC7000"/></g><defs><clipPath id="a"><path fill="#fff" transform="rotate(-180 10.5 10.5)" d="M0 0h21v21H0z"/></clipPath></defs></svg>