<svg width="65" height="65" fill="none" xmlns="http://www.w3.org/2000/svg"><circle cx="32.5" cy="32.5" r="32.5" fill="#DC7000" fill-opacity=".09"/><g clip-path="url(#a)" fill="#DC7000"><path d="M45.72 18.18H20.38a3.86 3.86 0 0 0-3.85 3.85v22.04a3.86 3.86 0 0 0 3.85 3.85h25.34a3.86 3.86 0 0 0 3.86-3.85V22.03a3.86 3.86 0 0 0-3.86-3.85Zm2.75 25.89a2.76 2.76 0 0 1-2.75 2.75H20.38a2.76 2.76 0 0 1-2.75-2.75V22.03a2.76 2.76 0 0 1 2.75-2.75h25.34a2.76 2.76 0 0 1 2.75 2.75v22.04Z"/><path d="M45.72 22.58H20.38c-.91 0-1.65.74-1.65 1.66v19.83c0 .91.74 1.65 1.65 1.65h25.34c.91 0 1.65-.74 1.65-1.65V24.24c0-.92-.74-1.66-1.65-1.66ZM33.05 33.53l-6-3.23 6-3.23 6 3.23-6 3.23Zm6.61-2.31v6.46l-6.06 3.26v-6.46l6.06-3.26Zm-7.16 3.26v6.46l-6.06-3.26v-6.46l6.06 3.26ZM19.83 24.24c0-.3.25-.55.55-.55H32.5v2.42l-6.87 3.7-.02.01a.55.55 0 0 0-.27.48v4.61l-5.5 2.76V24.24Zm26.44 19.83c0 .3-.25.55-.55.55H20.38a.55.55 0 0 1-.55-.55V38.9l5.5-2.75V38c0 .2.12.39.3.48l7.16 3.86c.16.09.36.09.52 0l7.16-3.86c.18-.1.3-.28.3-.48v-1.86l5.5 2.75v5.17Zm0-6.4-5.5-2.76V30.3c0-.2-.1-.38-.28-.48h-.02L33.6 26.1v-2.42h12.12c.3 0 .55.24.55.55v13.43ZM19.83 21.48a.55.55 0 1 0 0-1.1.55.55 0 0 0 0 1.1ZM22.03 21.48a.55.55 0 1 0 0-1.1.55.55 0 0 0 0 1.1ZM24.24 21.48a.55.55 0 1 0 0-1.1.55.55 0 0 0 0 1.1ZM38 21.48h7.72a.55.55 0 1 0 0-1.1h-7.71a.55.55 0 0 0 0 1.1Z"/></g><defs><clipPath id="a"><path fill="#fff" transform="translate(16.53 16.53)" d="M0 0h33.05v33.05H0z"/></clipPath></defs></svg>